<?xml version="1.0" encoding="UTF-8" standalone="no"?>
<!-- Created with Inkscape (http://www.inkscape.org/) -->

<svg
   xmlns:dc="http://purl.org/dc/elements/1.1/"
   xmlns:cc="http://creativecommons.org/ns#"
   xmlns:rdf="http://www.w3.org/1999/02/22-rdf-syntax-ns#"
   xmlns:svg="http://www.w3.org/2000/svg"
   xmlns="http://www.w3.org/2000/svg"
   xmlns:sodipodi="http://sodipodi.sourceforge.net/DTD/sodipodi-0.dtd"
   xmlns:inkscape="http://www.inkscape.org/namespaces/inkscape"
   width="319.55228"
   height="289.39383"
   id="svg2"
   version="1.1"
   inkscape:version="0.48.4 r9939"
   sodipodi:docname="Nuevo documento 1">
  <defs
     id="defs4" />
  <sodipodi:namedview
     id="base"
     pagecolor="#ffffff"
     bordercolor="#666666"
     borderopacity="1.0"
     inkscape:pageopacity="0.0"
     inkscape:pageshadow="2"
     inkscape:zoom="0.49497475"
     inkscape:cx="281.78837"
     inkscape:cy="324.04"
     inkscape:document-units="px"
     inkscape:current-layer="layer1"
     showgrid="false"
     fit-margin-top="0"
     fit-margin-left="0"
     fit-margin-right="0"
     fit-margin-bottom="0"
     inkscape:window-width="1301"
     inkscape:window-height="744"
     inkscape:window-x="65"
     inkscape:window-y="24"
     inkscape:window-maximized="1" />
  <metadata
     id="metadata7">
    <rdf:RDF>
      <cc:Work
         rdf:about="">
        <dc:format>image/svg+xml</dc:format>
        <dc:type
           rdf:resource="http://purl.org/dc/dcmitype/StillImage" />
        <dc:title></dc:title>
      </cc:Work>
    </rdf:RDF>
  </metadata>
  <g
     inkscape:label="Capa 1"
     inkscape:groupmode="layer"
     id="layer1"
     transform="translate(-80.43546,-634.37337)">
    <g
       id="g3855"
       transform="translate(-134.35028,253.54789)">
      <path
         inkscape:connector-curvature="0"
         id="path2996"
         d="m 288.99565,663.4693 c -1.6974,-3.7125 -4.2636,-9.9 -5.70268,-13.75 -5.17084,-13.8337 -52.4441,-163.40057 -57.36629,-181.5 -6.82395,-25.0924 -11.14094,-42.47667 -11.14094,-44.86395 0,-2.30184 1.41562,-2.83147 17.9532,-6.71685 12.4977,-2.93624 35.73693,-11.83685 46.23657,-17.70858 3.6479,-2.04003 9.26002,-5.75142 12.47139,-8.24755 3.21136,-2.49612 7.56988,-5.73507 9.68559,-7.19765 l 3.84675,-2.65924 3.65325,4.35421 c 6.36038,7.58076 21.84253,29.19195 27.73154,38.70984 5.97845,9.66246 7.77159,10.66139 8.96848,4.99623 1.07502,-5.08836 4.1705,-9.27855 9.23162,-12.49635 11.27253,-7.16693 29.56984,-9.89186 45.24208,-6.73769 16.09848,3.23995 24.4901,8.74485 27.13574,17.801 1.12668,3.85672 2.378,5.70868 3.88596,5.75127 0.29819,0.008 3.4164,-4.43013 6.92934,-9.86345 7.40472,-11.45258 4.72117,-11.07684 24.02849,-3.36441 22.02919,8.7997 34.36906,10.65715 59.97684,9.02799 3.92831,-0.24992 4.62305,0.0215 5.67021,2.21518 6.18168,12.94991 9.0876,70.7862 5.0244,100 -2.69516,19.37781 -3.17209,39.34327 -1.27699,53.45846 1.98056,14.75168 2.01841,25.92897 0.11817,34.89779 -1.76201,8.31647 -4.01346,12.38448 -8.5667,15.47865 -4.79252,3.25679 -9.89994,2.51759 -19.0484,-2.75689 -13.56509,-7.82085 -19.37096,-9.75969 -31.622,-10.56001 l -11.08391,-0.72407 -1.67308,3.52576 c -2.1907,4.61656 -6.11308,6.3764 -18.20522,8.16806 -17.2046,2.54916 -30.9843,3.41569 -65.56332,4.12291 -18.5625,0.37964 -33.75,0.76997 -33.75,0.86739 0,0.0974 1.14925,3.00546 2.5539,6.46231 1.40464,3.45685 2.35186,6.48721 2.10494,6.73413 -0.24692,0.24693 -5.80516,2.84279 -12.35163,5.76859 -12.79057,5.71647 -35.70227,13.55692 -39.61659,13.55692 -1.98475,0 -2.92269,-1.15516 -5.48071,-6.75 z m 16.98847,-1.84072 c 4.56589,-1.4249 14.03912,-4.83534 21.05162,-7.57876 14.11593,-5.52242 14.07221,-5.46879 10.45878,-12.83052 l -2.20878,-4.5 -7.5,-0.64278 c -11.77814,-1.00943 -15.23013,-3.12056 -16.52668,-10.10722 l -0.6959,-3.75 -15.3512,0 -15.3512,0 6.56146,19.25 c 3.6088,10.5875 6.98276,20.0375 7.49767,21 1.22824,2.29585 2.23928,2.22539 12.06423,-0.84072 z M 521.2617,628.83425 c 4.5568,-4.5568 6.86839,-18.52693 5.47465,-33.08621 -0.52802,-5.51581 -1.4504,-15.20374 -2.04974,-21.52874 -1.21107,-12.7807 -0.77245,-21.67871 2.2675,-46 1.75462,-14.03786 1.98471,-20.08129 1.542,-40.5 -0.2862,-13.2 -0.83163,-24.9782 -1.21207,-26.17378 -0.66141,-2.07859 -1.24578,-2.17506 -13.345,-2.20301 -17.32449,-0.04 -34.14938,-2.59922 -49.07301,-7.46444 -3.82624,-1.24738 -6.66589,-1.79339 -6.31036,-1.21336 0.35554,0.58002 1.92008,2.94552 3.47676,5.25667 5.25035,7.79501 12.61451,24.71462 16.66894,38.29792 4.04609,13.55536 9.99576,39.71319 10.18646,44.78495 l 0.10209,2.71505 0.84685,-3 c 0.46577,-1.65 1.53682,-8.14449 2.38011,-14.43219 1.55518,-11.5957 2.61864,-14.41803 4.66259,-12.37408 0.79165,0.79165 0.50631,5.7069 -1.0331,17.79606 -3.35731,26.36542 -3.49461,32.77215 -1.1896,55.51021 1.14298,11.275 2.28002,24.31 2.52676,28.96667 l 0.44863,8.46666 8.11881,4.28334 c 9.28799,4.90017 12.15764,5.25137 15.51073,1.89828 z m -109.47596,-9.57703 c 18.71751,-2.28051 34.98539,-6.1934 39.75,-9.56103 2.00116,-1.41442 2.24962,-2.44114 2.24658,-9.28359 -0.01,-21.83031 -6.653,-72.00777 -12.01682,-90.76406 -1.75359,-6.13199 -1.80247,-7.0351 -0.45376,-8.38381 3.533,-3.533 6.63788,2.67534 10.38753,20.77031 2.6561,12.81779 6.58534,43.49425 8.1891,63.93426 l 1.27501,16.25 14.45495,0 14.45496,0 -0.66586,-8.25 c -0.36623,-4.5375 -1.5761,-15.9 -2.68862,-25.25 -8.63827,-72.59948 -25.80987,-117.61187 -48.48093,-127.08445 -6.69497,-2.79733 -12.02662,-2.16359 -20.98688,2.49458 -10.90205,5.66766 -19.86991,7.42557 -34.46526,6.756 -13.18369,-0.60481 -21.90559,-2.92104 -29.51984,-7.83944 -8.07011,-5.21286 -18.06828,-4.15353 -27.02216,2.86306 -12.0268,9.42464 -23.48514,33.35001 -31.51784,65.81025 -4.59932,18.58586 -9.58271,50.69344 -11.4079,73.5 -0.33012,4.125 -0.85215,9.6375 -1.16007,12.25 l -0.55987,4.75 14.4409,0 14.44089,0 1.21934,-14.75 c 3.54922,-42.93399 10.04171,-81.22368 14.59977,-86.10278 1.39858,-1.49709 5.48678,-0.70553 5.48678,1.06235 0,0.59114 -0.88458,4.04832 -1.96573,7.68262 -2.37213,7.97392 -6.42146,30.99139 -8.46333,48.10781 -2.01692,16.90719 -4.73892,52.91919 -4.08048,53.98456 1.43399,2.32024 18.55708,6.6188 32.00954,8.03562 9.98948,1.05211 51.10646,0.4059 62.5,-0.98226 z M 278.79494,570.2193 c 2.58325,-23.07799 5.24858,-39.6434 9.16275,-56.94795 l 3.04183,-13.44794 -2.74151,-16.35889 c -2.15625,-12.86657 -2.50386,-16.88046 -1.62833,-18.80206 1.74526,-3.83042 6.18643,-3.28543 11.06787,1.35816 l 3.99602,3.80133 5.29609,-9.02254 c 6.55065,-11.15984 16.33264,-21.36781 23.57896,-24.60575 3.36005,-1.5014 5.10061,-2.8356 4.7821,-3.66563 -0.96754,-2.52135 -15.22262,-23.8235 -16.80854,-25.11793 -1.34051,-1.09412 -2.23263,-0.99114 -5.43024,0.62679 -5.17707,2.61951 -13.26526,4.22884 -17.66503,3.51485 -3.03675,-0.4928 -4.74234,0.0819 -10.63886,3.585 -3.86227,2.29453 -7.02231,4.31385 -7.02231,4.48737 0,0.17352 1.74283,4.09093 3.87296,8.70534 2.13013,4.61442 4.69658,11.00677 5.70323,14.20523 2.00371,6.36644 1.45276,7.63678 -3.32619,7.66931 -2.67472,0.0182 -2.81592,-0.70187 -0.61464,-3.13426 1.52796,-1.68838 1.30455,-2.54735 -3.40167,-13.07874 -4.40186,-9.85034 -5.33315,-11.25997 -7.38536,-11.17876 -1.29158,0.0511 -7.51193,1.69206 -13.82299,3.64656 l -11.47467,3.55362 -3.70368,5.4379 c -2.03703,2.99085 -6.62536,7.6499 -10.19629,10.35345 -5.61189,4.24875 -6.41685,5.25466 -5.93412,7.41554 1.85917,8.32234 11.58584,41.22745 18.77045,63.5 4.61285,14.3 12.70703,39.725 17.98706,56.5 5.28004,16.775 9.88696,31.175 10.2376,32 0.35065,0.825 0.9951,-2.55 1.43212,-7.5 0.43701,-4.95 1.72644,-17.325 2.86539,-27.5 z m 19.98999,-93.58339 c 4.4e-4,-0.59586 -1.55546,-2.84586 -3.45756,-5 l -3.45838,-3.91661 -0.0416,3.20078 c -0.0396,3.04349 1.50156,12.08796 2.60693,15.29922 0.48803,1.41779 4.34875,-7.08646 4.35063,-9.58339 z m 225.76075,-24.24708 c 1.00831,-0.64011 0.97095,-2.45522 -0.18705,-9.08841 -0.79584,-4.5587 -1.61552,-8.45709 -1.82151,-8.66308 -0.20599,-0.20599 -3.04682,0.0631 -6.31295,0.59793 -9.29117,1.52147 -15.46659,1.1825 -28.46831,-1.56265 -14.60902,-3.08451 -22.46597,-5.45736 -33.00067,-9.9664 l -7.99276,-3.42104 -3.608,5.43404 c -1.98441,2.98873 -3.36858,6.05799 -3.07594,6.82058 0.82835,2.15865 17.27947,10.20584 26.70725,13.06406 7.82387,2.37196 24.31698,5.99938 31.5,6.92795 5.81366,0.75156 25.01553,0.647 26.25994,-0.14298 z m -289.10896,-13.6328 c 3.7157,-3.5548 6.51025,-6.70883 6.21012,-7.00896 -0.52978,-0.52978 -16.62239,2.20666 -18.00606,3.06182 -0.58839,0.36364 0.21443,4.77235 1.66809,9.16041 0.82812,2.49977 3.50713,1.12076 10.12785,-5.21327 z m 148.148,1.34647 0.29899,-4.59881 -5.29899,-1.05154 c -2.91444,-0.57835 -5.43395,-0.91987 -5.59891,-0.75894 -0.16496,0.16094 0.002,2.57072 0.37163,5.35506 0.6289,4.74091 0.87026,5.0881 3.79993,5.46618 5.74822,0.74182 6.10836,0.4946 6.42735,-4.41195 z m 12.95102,4.13045 c 2.03151,-0.0123 2.25,-0.49918 2.25,-5.01365 0,-4.52256 -0.21485,-4.9987 -2.25,-4.98635 -6.33087,0.0384 -8.7472,2.87704 -7.31306,8.59112 0.52522,2.09266 1.08721,2.48856 2.85841,2.01366 1.21256,-0.32512 3.21715,-0.59727 4.45465,-0.60478 z m 12.37184,-4.24132 c 0.58368,-1.09061 0.77043,-3.53305 0.415,-5.42765 -0.56017,-2.98598 -0.9386,-3.35353 -2.84154,-2.75993 -2.98958,0.93258 -3.66207,2.21663 -3.67999,7.02658 -0.0144,3.8622 0.13801,4.08202 2.515,3.62763 1.39167,-0.26604 3.00786,-1.37602 3.59153,-2.46663 z m -40.72883,0.64588 c 0.33385,-0.86998 0.60699,-3.04846 0.60699,-4.84107 0,-2.88163 -0.57935,-3.57461 -5,-5.98062 l -5,-2.72134 0,6.05954 c 0,5.87819 0.0973,6.10208 3.25,7.48084 4.31729,1.88804 5.41934,1.88852 6.14301,0.003 z m 52.59362,-8.91821 c 1.01386,-2.70159 0.19121,-4.5 -2.05844,-4.5 -2.95381,0 -5.44876,7.1461 -3.25934,9.33551 0.87827,0.87827 4.36247,-2.28995 5.31778,-4.83551 z m -66.59498,-4.07567 c -0.33275,-1.32578 -1.00699,-2.16206 -1.49832,-1.8584 -1.0518,0.65004 -1.17626,4.5332 -0.22476,7.01275 0.58889,1.53463 0.76744,1.47495 1.49832,-0.50079 0.45637,-1.23368 0.55751,-3.32778 0.22476,-4.65356 z m -121.82805,1.03662 c 4.85407,-0.84648 9.41302,-2.02658 10.13099,-2.62245 1.41541,-1.17468 1.76768,-4.44852 0.55541,-5.16168 -0.92837,-0.54614 -20.82805,3.5675 -21.75814,4.49782 -0.84002,0.84023 0.35298,4.82536 1.44454,4.82536 0.44089,0 4.77313,-0.69257 9.6272,-1.53905 z m 162.4364,-1.39474 c 4.01579,-1.17973 -6.90931,-2.41172 -13.25,-1.49416 -4.41888,0.63945 -4.85423,0.87599 -2.75,1.49416 1.375,0.40394 4.975,0.73443 8,0.73443 3.025,0 6.625,-0.33049 8,-0.73443 z m -135.25,-4.81901 c 6.35257,-1.75049 7.43993,-2.57661 4.75,-3.60883 -2.15539,-0.8271 -1.84701,-3.38229 0.56392,-4.67258 2.63266,-1.40896 5.2476,0.47734 4.39327,3.1691 -0.44085,1.38898 -0.19627,1.70222 0.97742,1.25183 3.00785,-1.15422 0.74748,-6.41724 -2.71979,-6.33274 -3.56015,0.0868 -20.22443,6.55193 -20.11482,7.80385 0.055,0.62819 0.1675,2.09095 0.25,3.25058 0.16668,2.34289 0.30979,2.33254 11.9,-0.86121 z m 130.75,-6.2472 c 0,-1.76405 -6.20589,-2.69411 -7.74003,-1.15998 -1.75769,1.7577 0.33488,3.27721 4.08293,2.96481 2.44861,-0.2041 3.6571,-0.80051 3.6571,-1.80483 z m -109.38533,-3.65893 c 2.68693,-1.46241 4.88533,-2.96767 4.88533,-3.34501 0,-0.37735 -0.88187,-1.48416 -1.95971,-2.45959 -2.2374,-2.02483 -5.53574,-1.57537 -8.99497,1.22574 -1.96436,1.59065 -2.07078,2.08781 -0.96593,4.51269 0.6829,1.4988 1.44601,2.7251 1.6958,2.7251 0.24978,0 2.65255,-1.19652 5.33948,-2.65893 z m 26.59782,-6.46457 c 3.18313,-1.16792 6.1919,-2.49481 6.68616,-2.94865 1.32717,-1.21862 -2.24931,-6.19914 -3.97581,-5.53662 -2.36684,0.90825 -12.42284,8.78357 -12.42284,9.72891 0,1.46029 3.59904,0.99945 9.71249,-1.24364 z m -11.65949,-3.04759 c 9.91574,-7.07077 13.32798,-11.97801 9.38184,-13.49229 -1.41893,-0.54449 -10.21383,4.8386 -17.43484,10.67133 l -2.5,2.01937 2.36078,1.98634 c 1.29844,1.09249 2.67228,1.98634 3.053,1.98634 0.38072,0 2.69337,-1.42699 5.13922,-3.17109 z"
         style="fill:#000000;fill-opacity:1" />
      <path
         inkscape:connector-curvature="0"
         id="path3811"
         d="m 352.92531,620.35221 c -11.25608,-0.7022 -29.03168,-4.49621 -34.05453,-7.26857 -1.61515,-0.89148 -1.68105,-1.22042 -1.37823,-6.87931 0.96343,-18.00376 3.09999,-41.55772 5.05061,-55.67926 2.01277,-14.57139 5.23791,-32.28694 7.17307,-39.40134 1.50126,-5.51927 2.18688,-8.46121 2.10419,-9.02896 -0.18551,-1.27373 -3.49387,-2.07239 -5.07809,-1.22589 -4.22211,2.25601 -10.57218,36.80328 -14.44115,78.56641 -0.61558,6.64477 -1.89472,21.75191 -1.89773,22.41276 -0.001,0.24881 -3.03125,0.31567 -14.30491,0.31567 l -14.30348,0 0.14524,-1.45209 c 0.0799,-0.79865 0.66605,-6.90692 1.30261,-13.57393 1.62725,-17.04298 2.64951,-25.51239 4.70935,-39.01714 3.62524,-23.76787 7.52057,-40.95971 12.96035,-57.19989 8.7742,-26.19494 19.15272,-42.45507 30.82888,-48.29989 3.55121,-1.77766 5.85456,-2.37944 9.66392,-2.52484 4.79324,-0.18295 7.43284,0.5131 11.81133,3.11459 9.06899,5.38835 17.38564,7.41623 32.18911,7.84881 7.07922,0.20687 13.42876,-0.33452 18.19089,-1.55104 5.02487,-1.28363 7.01702,-2.04695 13.88145,-5.31888 7.34651,-3.5017 11.08727,-4.45909 15.21542,-3.89413 5.51082,0.75418 10.7543,3.68824 15.97356,8.93823 5.42401,5.45596 9.52855,11.57803 13.91329,20.75222 9.07498,18.98758 16.09865,45.00586 21.30613,78.9258 1.92269,12.52385 4.58008,35.14141 5.55945,47.31754 0.14523,1.80565 0.32771,3.87961 0.4055,4.60882 l 0.14144,1.32582 -14.36002,0 -14.36002,0 -0.44082,-5.87151 c -2.1225,-28.27099 -6.37101,-62.43915 -9.53448,-76.68009 -2.80704,-12.63638 -5.04357,-18.43393 -7.41293,-19.21589 -1.0323,-0.34069 -1.78142,-0.0734 -2.7942,0.99709 -0.66983,0.70797 -0.75417,0.96696 -0.72788,2.23512 0.0164,0.78891 0.45371,3.02536 0.97189,4.9699 2.80327,10.51956 5.13242,22.80439 7.45254,39.30747 3.12664,22.23992 4.64058,38.78856 4.66339,50.97492 0.0158,8.45656 -0.0724,9.09337 -1.41682,10.22462 -3.26244,2.74516 -14.4183,5.94722 -29.37841,8.43246 -9.48227,1.57524 -15.23776,2.12873 -26.76904,2.57431 -8.66209,0.33471 -38.74879,0.50285 -42.96087,0.24009 l 0,0 z"
         style="fill:#9bcb3b;fill-opacity:1;stroke:none" />
      <path
         inkscape:connector-curvature="0"
         id="path3813"
         d="m 414.50368,435.88397 c -1.04362,-1.89356 0.20271,-6.52849 2.37617,-8.83668 1.06172,-1.12752 3.03077,-1.26952 4.03824,-0.2912 1.63155,1.58432 0.0655,6.03702 -3.02746,8.60782 -2.0312,1.6883 -2.68754,1.78908 -3.38695,0.52006 z"
         style="fill:#9bcb3b;fill-opacity:1;stroke:none" />
      <path
         inkscape:connector-curvature="0"
         id="path3815"
         d="m 402.7745,442.26981 c -0.39909,-0.42342 -0.51372,-1.76499 -0.38032,-4.45073 0.22347,-4.49911 0.91957,-5.66366 3.97097,-6.64332 1.72719,-0.55452 2.00759,-0.55525 2.63037,-0.007 0.97506,0.85858 1.66464,4.98245 1.16232,6.95102 -0.5084,1.99246 -2.44438,3.82435 -4.59848,4.35127 -2.10395,0.51465 -2.11043,0.51418 -2.78486,-0.20137 l 0,0 z"
         style="fill:#9bcb3b;fill-opacity:1;stroke:none" />
      <path
         inkscape:connector-curvature="0"
         id="path3817"
         d="m 388.44684,444.4694 c -0.26779,-0.49593 -0.56986,-2.10093 -0.67125,-3.56668 -0.15999,-2.31256 -0.0548,-2.85365 0.79525,-4.09166 0.5388,-0.78467 1.67532,-1.75292 2.5256,-2.15168 1.87796,-0.8807 6.17871,-1.12469 6.9196,-0.39255 0.78335,0.7741 0.71539,8.8873 -0.0807,9.63227 -0.55672,0.52099 -5.72831,1.472 -8.00475,1.472 -0.60783,0 -1.18689,-0.3519 -1.48375,-0.9017 z"
         style="fill:#9bcb3b;fill-opacity:1;stroke:none" />
      <path
         inkscape:connector-curvature="0"
         id="path3819"
         d="m 377.34132,444.61748 c -2.46161,-0.36687 -3.11687,-0.79148 -3.69645,-2.39537 -0.38486,-1.06503 -1.32552,-6.8495 -1.32552,-8.15108 0,-0.27879 0.50392,-0.48213 1.18115,-0.47658 1.37163,0.0112 11.17808,1.68278 11.48867,1.9583 0.11509,0.10209 0.0202,1.97283 -0.21106,4.15714 -0.57154,5.39965 -1.2281,5.83291 -7.43679,4.90759 l 0,0 z"
         style="fill:#9bcb3b;fill-opacity:1;stroke:none" />
      <path
         inkscape:connector-curvature="0"
         id="path3821"
         d="m 362.63963,440.86912 c -4.20388,-1.68294 -4.31319,-1.91638 -4.16352,-8.89113 l 0.1182,-5.50919 4.6559,2.46732 c 5.92198,3.13827 6.3733,3.67658 6.28883,7.5009 -0.0356,1.61353 -0.34865,3.56106 -0.69559,4.32785 -0.81413,1.79935 -1.92304,1.81798 -6.20384,0.10431 l 0,0 z"
         style="fill:#9bcb3b;fill-opacity:1;stroke:none" />
      <path
         inkscape:connector-curvature="0"
         id="path3823"
         d="m 352.26259,433.72241 c -2.48307,-3.23382 -2.00937,-9.0656 0.73639,-9.0656 2.80596,0 3.85447,5.70406 1.62135,8.82059 l -1.22892,1.71512 -1.12882,-1.47011 z"
         style="fill:#9bcb3b;fill-opacity:1;stroke:none" />
      <path
         inkscape:connector-curvature="0"
         id="path3825"
         d="m 381.00758,428.02181 c -1.68077,-0.26247 -3.22091,-0.69956 -3.42252,-0.9713 -1.15527,-1.55712 15.70642,-2.25535 18.55975,-0.76855 3.1963,1.6655 -7.63864,2.91087 -15.13723,1.73985 z"
         style="fill:#9bcb3b;fill-opacity:1;stroke:none" />
      <path
         inkscape:connector-curvature="0"
         id="path3827"
         d="m 382.93721,417.82537 c -0.52646,-0.23369 -1.22864,-0.75811 -1.56039,-1.16539 -0.50258,-0.61695 -0.43282,-0.91407 0.4181,-1.78102 0.90087,-0.91783 1.42667,-1.01967 4.45902,-0.86366 2.55776,0.13165 3.69346,0.41267 4.43681,1.09806 0.985,0.9082 0.98636,0.93414 0.0964,1.8409 -1.01685,1.03598 -6.1862,1.60963 -7.84992,0.87111 z"
         style="fill:#9bcb3b;fill-opacity:1;stroke:none" />
      <path
         sodipodi:nodetypes="cscssssssssssssssssssssssc"
         inkscape:connector-curvature="0"
         id="path3829"
         d="M 263.99926,583.1552 C 247.58491,527.66393 233.34839,477.86246 230.40998,465.65493 l -3.90821,-14.63964 8.86752,-6.72743 c 5.02639,-3.81332 9.74726,-11.85166 10.92844,-13.74954 1.47243,-2.36583 5.29627,-1.4396 13.72054,-4.06353 6.75797,-2.10491 13.16445,-5.47487 13.91738,-4.06558 1.83811,3.44046 3.74229,7.47745 5.90644,10.89836 2.97858,4.70829 5.45372,7.10263 3.49218,12.74611 -1.06279,3.05772 -1.07967,3.88858 2.04766,3.88858 5.14644,0 4.11389,-2.83861 -2.1286,-18.76331 -3.8592,-9.84488 -7.14752,-11.49614 -5.77606,-12.49747 6.21597,-4.5384 16.93325,-8.17777 21.80434,-8.17777 3.09249,0 8.72338,-1.13669 12.51309,-2.52595 3.7897,-1.38927 7.11221,-2.27043 7.38335,-1.95815 0.27116,0.31231 4.21176,6.55971 8.75692,13.88313 7.3533,11.84806 7.98908,13.48793 5.7698,14.88182 -8.15402,5.12141 -15.34895,12.4489 -21.96643,22.37121 -4.13431,6.19898 -7.78139,12.12454 -8.10464,13.16788 -0.40222,1.29824 -2.05167,0.77548 -5.22577,-1.65619 -2.55093,-1.95426 -6.11113,-3.32808 -7.91157,-3.05297 -4.41111,0.67406 -3.35618,6.7378 -0.36842,25.59587 2.2957,14.49001 0.76042,15.27046 -2.77197,33.32043 -3.81691,19.50389 -8.73235,55.58814 -10.39415,76.30355 -0.55294,6.89265 -1.4318,13.38805 -1.95303,14.43426 -0.52123,1.04621 -5.47552,-13.40482 -11.00953,-32.1134 z"
         style="fill:#aedbea;fill-opacity:1;stroke:none" />
      <path
         inkscape:connector-curvature="0"
         id="path3831"
         d="m 233.3747,474.43929 c -2.74529,-9.42138 -5.17659,-18.26121 -5.8169,-21.1494 -0.29616,-1.33585 -0.0682,-2.14631 0.92113,-3.27463 0.58225,-0.66406 2.19595,-2.04739 3.96874,-3.40217 0.45141,-0.34497 1.2327,-0.9574 1.7362,-1.36096 3.37463,-2.70476 7.04939,-6.45042 9.13292,-9.30912 0.35298,-0.4843 3.52353,-5.11664 4.02814,-5.88533 0.0186,-0.0283 11.14687,-3.4642 13.56595,-4.18849 4.23489,-1.26794 8.49652,-2.41386 10.54304,-2.83495 1.37254,-0.28242 2.01936,-0.22671 2.68538,0.23126 1.22144,0.8399 2.66049,3.55319 6.6233,12.4881 2.70125,6.09048 3.4427,8.12112 3.4485,9.44452 0.002,0.48415 -0.0191,0.58609 -0.19713,0.94702 -0.10995,0.22291 -0.47736,0.73151 -0.81849,1.13303 -0.34044,0.4007 -0.70422,0.85288 -0.80839,1.00484 -0.2566,0.37431 -0.26615,0.24954 -0.0586,-0.76534 0.14795,-0.72345 0.16587,-0.92883 0.13379,-1.53306 -0.16063,-3.02537 -2.73429,-10.70262 -5.51342,-16.44657 -1.29826,-2.68326 -2.40692,-4.44228 -3.20172,-5.07992 -0.23951,-0.19215 -0.25253,-0.19479 -0.88913,-0.18086 -2.16054,0.0473 -8.27708,1.46054 -14.43047,3.33425 -3.38104,1.02952 -5.50135,1.81406 -8.15235,3.01644 -1.05941,0.4805 -2.66164,1.49633 -3.3508,2.12443 -0.23267,0.21206 -0.70613,0.761 -1.05214,1.21988 -1.979,2.62454 -6.0705,6.80391 -13.26673,13.55163 -2.30915,2.16523 -4.26145,3.99662 -4.33846,4.06976 l -0.14002,0.13299 1.35767,5.24017 c 1.92382,7.42535 2.22,8.50448 4.03997,14.71953 0.5709,1.94959 1.03801,3.57609 1.03801,3.61445 0,0.0445 -0.16594,0.0697 -0.45832,0.0697 l -0.45831,0 -0.27135,-0.93123 z"
         style="fill:#000000;fill-opacity:0;stroke:none" />
      <path
         inkscape:connector-curvature="0"
         id="path3833"
         d="m 294.70541,662.45937 c -0.40543,-0.49107 -2.87813,-7 -5.49488,-14.46429 -2.61675,-7.46428 -5.69035,-16.22321 -6.83022,-19.46428 l -2.07249,-5.89286 14.8628,0 14.86281,0 1.14574,4.121 c 1.87139,6.73105 4.28261,8.11964 16.58185,9.54932 l 7.42257,0.86281 1.82774,4.07276 c 2.83196,6.31046 2.65543,6.81248 -3.35945,9.55355 -7.63941,3.48139 -33.76714,12.55485 -36.15267,12.55485 -1.13115,0 -2.38836,-0.40179 -2.7938,-0.89286 z"
         style="fill:#000000;fill-opacity:0;stroke:none" />
      <path
         inkscape:connector-curvature="0"
         id="path3835"
         d="m 294.70541,662.45937 c -0.40543,-0.49107 -2.87813,-7 -5.49488,-14.46429 -2.61675,-7.46428 -5.69035,-16.22321 -6.83022,-19.46428 l -2.07249,-5.89286 14.8628,0 14.86281,0 1.14574,4.121 c 1.87139,6.73105 4.28261,8.11964 16.58185,9.54932 l 7.42257,0.86281 1.82774,4.07276 c 2.83196,6.31046 2.65543,6.81248 -3.35945,9.55355 -7.63941,3.48139 -33.76714,12.55485 -36.15267,12.55485 -1.13115,0 -2.38836,-0.40179 -2.7938,-0.89286 z"
         style="fill:#000000;fill-opacity:0;stroke:none" />
      <path
         inkscape:connector-curvature="0"
         id="path3837"
         d="m 294.44301,663.39149 c -0.85823,-0.97559 -4.26359,-10.1757 -11.11505,-30.02911 -2.03732,-5.90352 -3.81789,-11.02818 -3.95682,-11.38815 -0.19863,-0.51463 3.12402,-0.6545 15.54817,-0.6545 l 15.80079,0 0.36675,2.48707 c 0.49421,3.35136 1.93477,6.47672 3.76943,8.17794 2.33853,2.16845 6.56183,3.158 18.17004,4.25737 l 3.48489,0.33005 2.27164,4.75096 c 3.37289,7.05415 3.35555,7.0727 -12.19055,13.0464 -11.71488,4.50153 -26.04382,9.27615 -29.07929,9.68967 -1.75315,0.23883 -2.39541,0.0991 -3.07,-0.6677 l 0,0 z"
         style="fill:#aedbea;fill-opacity:1;stroke:none" />
      <path
         inkscape:connector-curvature="0"
         id="path3839"
         d="m 225.37824,443.9555 c -0.68488,-1.88606 -2.04065,-7.5228 -2.04065,-8.48418 0,-0.72526 0.58576,-1.28745 1.7325,-1.6628 2.51589,-0.8235 16.16763,-2.92246 17.33083,-2.66461 0.73603,0.16315 -0.34723,1.47202 -4.24248,5.12607 -7.72941,7.25076 -12.00452,9.82165 -12.7802,7.68552 z"
         style="fill:#aedbea;fill-opacity:1;stroke:none" />
      <path
         inkscape:connector-curvature="0"
         id="path3841"
         d="m 221.45632,429.08545 c -1.24412,-2.80233 -0.87915,-3.44098 2.52595,-4.42014 4.87917,-1.40302 16.60301,-3.76286 18.69417,-3.76286 1.16409,0 1.99175,0.32426 2.19155,0.8586 0.49466,1.32295 -0.85748,4.08343 -2.19197,4.4751 -6.18737,1.81594 -7.21431,2.03408 -18.87733,4.01004 -1.42475,0.24139 -1.80313,0.0539 -2.34237,-1.16074 l 0,0 z"
         style="fill:#aedbea;fill-opacity:1;stroke:none" />
      <path
         inkscape:connector-curvature="0"
         id="path3843"
         d="m 248.38828,424.51792 c -0.14577,-0.23586 -0.41599,-1.37283 -0.60048,-2.5266 l -0.33545,-2.09776 3.90315,-1.77872 c 5.4558,-2.48629 13.77838,-5.31968 15.85491,-5.39774 2.79888,-0.10522 5.19943,3.35778 3.50334,5.05387 -1.03124,1.03124 -1.50917,0.67298 -1.1689,-0.87623 0.46593,-2.12136 -1.24895,-3.79272 -3.45465,-3.36699 -3.14356,0.60673 -4.57042,4.31794 -2.09396,5.44629 0.69448,0.31642 1.26269,0.74759 1.26269,0.95814 0,0.43039 -4.42157,1.92555 -10.10153,3.41584 -5.74507,1.50737 -6.48185,1.63471 -6.76912,1.1699 z"
         style="fill:#aedbea;fill-opacity:1;stroke:none" />
      <path
         inkscape:connector-curvature="0"
         id="path3845"
         d="m 274.27765,412.52207 -1.02601,-2.31945 1.18067,-1.28271 c 1.36749,-1.48566 4.70639,-3.14258 6.36513,-3.15866 0.62911,-0.006 1.98249,0.75748 3.00752,1.69684 l 1.86368,1.70794 -2.75498,1.75737 c -2.82549,1.80233 -6.77233,3.91813 -7.30895,3.91813 -0.16558,0 -0.76276,-1.04376 -1.32706,-2.31946 z"
         style="fill:#aedbea;fill-opacity:1;stroke:none" />
      <path
         inkscape:connector-curvature="0"
         id="path3847"
         d="m 288.08686,404.19123 c -1.16589,-0.85741 -2.11516,-1.70972 -2.10947,-1.89403 0.0246,-0.7982 11.26145,-8.68785 15.85408,-11.13155 2.80472,-1.49236 3.0411,-1.53749 3.91434,-0.74721 1.20098,1.08687 1.19617,1.11867 -0.57237,3.78869 -1.87768,2.83477 -12.76083,11.54302 -14.42591,11.54302 -0.29747,0 -1.49478,-0.70151 -2.66067,-1.55892 z"
         style="fill:#aedbea;fill-opacity:1;stroke:none" />
      <path
         inkscape:connector-curvature="0"
         id="path3849"
         d="m 299.86825,405.73828 c 1.0914,-1.1177 3.88794,-3.38623 6.21454,-5.04117 3.5315,-2.51201 4.39304,-2.92183 5.21623,-2.48127 0.92975,0.49758 2.94631,3.31118 2.95042,4.11654 0.006,1.1335 -11.6887,5.43808 -14.7739,5.43808 l -1.59166,0 1.98437,-2.03218 z"
         style="fill:#aedbea;fill-opacity:1;stroke:none" />
      <path
         sodipodi:nodetypes="ssssscsssssss"
         inkscape:connector-curvature="0"
         id="path3851"
         d="m 512.85773,453.38097 c -3.85873,-0.39019 -13.57985,-0.24293 -23.4741,-1.84116 -10.60526,-1.71308 -21.40943,-5.20593 -25.40645,-6.52756 -8.45802,-2.79669 -21.3165,-10.41071 -25.16439,-13.18624 -1.72228,-1.2423 -1.72384,-1.24765 -0.90856,-3.11871 0.96666,-2.21842 5.4154,-9.15837 6.1497,-9.5934 0.28147,-0.16675 3.79353,1.00733 7.80458,2.60907 12.4409,4.96805 21.07719,7.45845 36.59437,10.55252 9.66365,1.9269 19.42282,2.43269 28.78202,1.49169 3.61995,-0.36396 6.69193,-0.5561 6.82662,-0.42699 0.56567,0.54223 2.45295,10.68988 2.55687,13.74799 0.11226,3.30342 -0.90532,5.34207 -2.50341,5.68019 -1.66993,0.35333 -7.97456,0.94454 -11.25725,0.6126 z"
         style="fill:#ed1c91;fill-opacity:1;stroke:none" />
      <path
         inkscape:connector-curvature="0"
         id="path3853"
         d="m 510.05966,628.59725 c -2.22234,-1.03873 -5.91571,-2.85431 -8.20749,-4.03462 l -4.16688,-2.14603 0,-2.70601 c 0,-1.4883 -0.92831,-13.13409 -2.06291,-25.87952 -2.88033,-32.35584 -2.85858,-34.80699 0.58109,-65.48937 1.72967,-15.42895 1.68137,-17.0306 -0.51355,-17.0306 -1.37171,0 -2.16104,2.91401 -4.03593,14.89975 -0.82563,5.27804 -1.70047,10.50558 -1.94409,11.61675 l -0.44294,2.0203 -0.38012,-2.77791 c -1.3099,-9.57281 -7.21894,-34.22932 -11.01498,-45.96195 -4.89601,-15.13233 -11.87675,-30.35154 -17.67806,-38.54114 -0.55248,-0.77992 -0.90505,-1.5175 -0.78349,-1.63906 0.12156,-0.12156 3.75967,0.78543 8.08469,2.01554 14.90705,4.23979 27.90976,6.1019 46.43506,6.64993 6.2956,0.18623 11.71905,0.50704 12.05213,0.71289 1.06259,0.65671 1.43405,4.42 2.04323,20.70032 0.79804,21.32712 0.42009,32.05179 -1.80661,51.26524 -2.29169,19.77411 -2.69969,31.30815 -1.55437,43.94164 2.55497,28.18259 2.48653,26.95256 1.88323,33.84495 -0.8859,10.12081 -3.09462,16.76098 -6.45424,19.40365 -2.09496,1.6479 -5.23743,1.37707 -10.03377,-0.86475 l 0,0 z"
         style="fill:#f06ba8;fill-opacity:1;stroke:none" />
    </g>
  </g>
</svg>
